HIERARCHY
ROOT Hips
{
	OFFSET 0.000000 8.830580 0.000000
	CHANNELS 6 Xposition Yposition Zposition Zrotation Yrotation Xrotation 
	JOINT Spine
	{
		OFFSET 0.000000 0.010000 0.000000
		CHANNELS 3 Zrotation Yrotation Xrotation
		JOINT Spine1
		{
			OFFSET 0.000000 2.459130 0.000000
			CHANNELS 3 Zrotation Yrotation Xrotation
			JOINT Neck
			{
				OFFSET 0.000000 2.484630 0.000000
				CHANNELS 3 Zrotation Yrotation Xrotation
				JOINT Head_virtual
				{
					OFFSET 0.000000 0.000000 0.000000
					CHANNELS 3 Zrotation Yrotation Xrotation
					JOINT Head
					{
						OFFSET 0.000000 0.927525 0.000000
						CHANNELS 3 Zrotation Yrotation Xrotation
						End Site
						{
							OFFSET 0.000000 0.000000 0.000000
						}
					}
				}
				JOINT LeftUpArm_virtual
				{
					OFFSET 0.000000 0.000000 0.000000
					CHANNELS 3 Zrotation Yrotation Xrotation
					JOINT LeftUpArm
					{
						OFFSET 1.248820 0.000000 0.000000
						CHANNELS 3 Zrotation Yrotation Xrotation
						JOINT LeftForeArm
						{
							OFFSET 2.597580 0.000000 0.000000
							CHANNELS 3 Zrotation Yrotation Xrotation
							JOINT LeftHand
							{
								OFFSET 2.455420 0.000000 0.000000
								CHANNELS 3 Zrotation Yrotation Xrotation
								End Site
								{
									OFFSET 0.000000 0.000000 0.000000
								}
							}
						}
					}
				}
				JOINT RightUpArm_virtual
				{
					OFFSET -0.000000 -0.000000 -0.000000
					CHANNELS 3 Zrotation Yrotation Xrotation
					JOINT RightUpArm
					{
						OFFSET -1.248820 -0.000000 -0.000000
						CHANNELS 3 Zrotation Yrotation Xrotation
						JOINT RightForeArm
						{
							OFFSET -2.597580 -0.000000 -0.000000
							CHANNELS 3 Zrotation Yrotation Xrotation
							JOINT RightHand
							{
								OFFSET -2.455420 -0.000000 -0.000000
								CHANNELS 3 Zrotation Yrotation Xrotation
								End Site
								{
									OFFSET 0.000000 0.000000 0.000000
								}
							}
						}
					}
				}
			}
		}
	}
	JOINT LeftUpLeg
	{
		OFFSET 1.271939 0.000000 0.000000
		CHANNELS 3 Zrotation Yrotation Xrotation
		JOINT LeftLowLeg
		{
			OFFSET 0.000000 -4.342910 0.000000
			CHANNELS 3 Zrotation Yrotation Xrotation
			JOINT LeftFoot
			{
				OFFSET 0.000000 -4.487670 0.000000
				CHANNELS 3 Zrotation Yrotation Xrotation
				JOINT LeftToeBase
				{
					OFFSET 0.000000 0.000000 1.515070
					CHANNELS 3 Zrotation Yrotation Xrotation
					End Site
					{
						OFFSET 0.000000 0.000000 0.000000
					}
				}
			}
		}
	}
	JOINT RightUpLeg
	{
		OFFSET -1.271939 0.000000 0.000000
		CHANNELS 3 Zrotation Yrotation Xrotation
		JOINT RightLowLeg
		{
			OFFSET 0.000000 -4.342910 0.000000
			CHANNELS 3 Zrotation Yrotation Xrotation
			JOINT RightFoot
			{
				OFFSET 0.000000 -4.487670 0.000000
				CHANNELS 3 Zrotation Yrotation Xrotation
				JOINT RightToeBase
				{
					OFFSET 0.000000 0.000000 1.515070
					CHANNELS 3 Zrotation Yrotation Xrotation
					End Site
					{
						OFFSET 0.000000 0.000000 0.000000
					}
				}
			}
		}
	}
}
MOTION
Frames: 12
Frame Time: 0.041667
-15.862652 -0.441072 44.528984 174.847022 6.701726 87.936405 7.889970 24.911659 3.299803 12.904929 -36.521310 -4.644954 0.000000 0.000000 0.000000 -16.827337 -33.383751 44.756866 18.768131 15.477136 -62.266527 -27.674101 17.425400 -13.094900 2.793430 -53.196800 -38.104801 -180.000000 -43.516006 180.000000 60.582500 -10.594500 -9.737970 4.260740 3.455970 -5.051650 2.598970 27.158501 -49.658298 -180.000000 46.160995 -180.000000 -56.816101 -9.204130 -25.849199 2.792446 3.290635 -1.506504 0.000000 0.000000 10.109400 10.113511 4.456042 24.412002 0.000000 0.000000 -26.900900 11.524815 -1.496272 -26.919620 0.000000 0.000000 31.476000 8.491780 -17.244611 36.753853 0.000000 0.000000 -30.928000 
-15.849383 -0.444209 44.534192 174.332965 6.867455 87.458305 6.054606 23.068996 5.123364 19.621276 -37.747994 -9.290370 0.000000 0.000000 0.000000 -18.949056 -30.730744 44.025457 17.451830 12.008665 -61.003313 -31.406799 19.886999 -14.042600 -0.079351 -53.251598 -34.373600 180.000000 -47.817001 -180.000000 65.990799 -9.568610 -12.976000 1.357210 7.692800 -4.694150 5.465640 25.201000 -46.836899 -180.000000 49.343994 -180.000000 -55.245701 -10.257000 -24.880301 2.958059 3.188255 -1.107995 0.000000 0.000000 10.338200 10.511899 4.628046 24.121010 0.000000 0.000000 -26.850300 10.886704 -1.418266 -26.155619 0.000000 0.000000 31.545601 7.561840 -17.508427 36.959624 0.000000 0.000000 -30.222000 
-15.839286 -0.445421 44.545882 174.018695 7.198192 88.448241 3.945422 21.319205 5.521301 26.452781 -38.527277 -13.910485 0.000000 0.000000 0.000000 -21.104046 -27.805246 42.900913 16.375672 8.433444 -59.483578 -35.160599 21.611700 -15.225900 -3.238090 -52.904598 -30.528900 -180.000000 -53.335999 180.000000 69.457603 -9.492760 -13.543200 -1.738030 11.234800 -6.429020 9.086280 23.693701 -40.990501 -180.000000 52.928001 -180.000000 -56.253799 -9.497670 -24.676201 3.179092 2.957021 -2.195965 0.000000 0.000000 10.587100 10.885405 4.508452 23.793033 0.000000 0.000000 -26.730900 10.491047 -1.428252 -26.581807 0.000000 0.000000 31.309700 7.163923 -17.913333 37.200285 0.000000 0.000000 -29.521800 
-15.824324 -0.444098 44.548882 173.506746 7.333918 87.314217 3.203625 20.179630 7.876098 30.821873 -38.924519 -16.900220 0.000000 0.000000 0.000000 -22.473416 -25.688695 41.831823 15.590302 5.866622 -57.527532 -37.312500 22.224100 -16.575899 -8.247240 -52.415600 -25.377100 180.000000 -59.559998 -180.000000 69.223503 -9.707030 -12.634300 -3.758110 13.443700 -6.555730 11.422800 22.579100 -37.639801 -180.000000 56.902000 -180.000000 -53.407101 -10.513700 -25.634300 3.332247 2.997807 -1.101117 0.000000 0.000000 10.769000 11.262516 4.018638 23.385736 0.000000 0.000000 -26.767400 9.922937 -1.534666 -24.909543 0.000000 0.000000 31.197500 7.900143 -18.786220 36.898166 0.000000 0.000000 -28.906000 
-15.811437 -0.446173 44.552141 172.926552 7.492832 87.740809 2.586755 19.327797 8.438295 33.048065 -39.436725 -18.462083 0.000000 0.000000 0.000000 -23.497904 -24.857115 42.137284 14.554020 4.687149 -57.569339 -38.583698 22.643101 -18.385200 -14.211600 -51.862099 -19.407200 -180.000000 -65.836998 180.000000 65.354897 -9.070450 -10.174700 -4.247490 15.114300 -5.952180 12.588900 21.447700 -35.094299 180.000000 60.975998 180.000000 -50.903599 -10.755800 -26.375900 3.380788 2.881403 -1.560063 0.000000 0.000000 10.876600 11.760034 3.593579 23.240501 0.000000 0.000000 -26.884800 9.291133 -0.787635 -24.708891 0.000000 0.000000 30.447700 8.304994 -19.961363 38.546664 0.000000 0.000000 -31.560801 
-15.797314 -0.447344 44.552769 172.213750 7.608433 87.806549 2.211592 18.774120 9.051841 34.430041 -40.000821 -19.169687 0.000000 0.000000 0.000000 -24.361762 -23.729733 42.031091 14.292583 3.619781 -57.212225 -39.943901 22.626499 -17.838301 -16.146700 -51.931599 -17.589399 180.000000 -72.203003 180.000000 60.987801 -6.626230 -8.582670 -5.113940 15.903800 -9.090800 15.648000 19.947500 -28.174801 -180.000000 65.306000 -180.000000 -49.500198 -10.062200 -27.057800 3.411873 2.535768 -1.603601 0.000000 0.000000 10.905800 12.094097 3.318516 23.181976 0.000000 0.000000 -26.919100 8.887231 -0.478758 -24.227100 0.000000 0.000000 30.224899 8.276731 -20.582765 39.128449 0.000000 0.000000 -31.285000 
-15.781872 -0.444297 44.551891 171.434963 7.773567 87.823397 2.073393 18.414892 9.565881 34.997307 -40.518349 -19.335524 0.000000 0.000000 0.000000 -24.963296 -23.206444 42.492020 13.578510 3.239272 -57.424799 -40.560699 22.371799 -17.045900 -18.630301 -51.917599 -14.816900 180.000000 -78.093002 180.000000 57.599098 -3.811310 -7.910290 -5.188360 16.060600 -8.635830 16.537500 19.857401 -24.409100 -180.000000 70.216003 -180.000000 -49.743999 -7.552120 -27.814501 3.480552 2.299077 -1.533895 0.000000 0.000000 10.871900 12.873155 3.037879 23.156153 0.000000 0.000000 -27.208900 8.657027 -0.219858 -23.635885 0.000000 0.000000 29.869499 7.823966 -20.892643 39.897593 0.000000 0.000000 -31.284300 
-15.769083 -0.439737 44.538812 170.576971 7.930450 87.736939 13.401835 30.183387 0.236957 -5.913125 -36.788800 14.550594 0.000000 0.000000 0.000000 -15.329001 -40.328145 53.251222 15.123574 21.862925 -57.573976 -25.774700 0.492495 -8.494450 -15.633800 -50.408901 -13.594800 -180.000000 -83.254898 180.000000 55.998501 -1.578610 -8.521890 14.610800 -4.152780 -13.822800 13.512900 20.351999 -21.232401 -180.000000 74.945999 -180.000000 -47.700401 -7.373300 -25.423100 3.557229 2.672499 -1.529244 0.000000 0.000000 11.243300 13.521268 2.394255 22.447303 0.000000 0.000000 -27.576300 8.465601 0.050633 -22.967310 0.000000 0.000000 29.632900 7.661215 -20.890421 40.130510 0.000000 0.000000 -31.250700 
-15.761007 -0.435099 44.540104 169.621212 7.789731 87.774164 14.422950 30.683872 0.086909 -9.492823 -36.329628 17.675827 0.000000 0.000000 0.000000 -14.972506 -40.659188 53.794016 14.185944 22.915696 -57.365422 -24.795300 -1.599280 -8.007310 -17.169701 -49.238899 -9.759000 -180.000000 -88.690804 180.000000 55.411598 -1.149250 -8.887170 15.950000 -5.205680 -14.695000 14.469700 20.416000 -16.683800 180.000000 79.529999 180.000000 -44.510899 -8.340480 -24.950300 3.211184 1.805312 -1.474612 0.000000 0.000000 11.214000 13.899519 2.702544 22.676263 0.000000 0.000000 -27.568700 8.022507 0.356191 -22.309553 0.000000 0.000000 29.090900 8.241981 -20.893615 40.258869 0.000000 0.000000 -31.292101 
-15.745657 -0.429443 44.534472 168.694264 7.800798 87.673942 14.784307 30.522861 0.297719 -11.080233 -36.445712 19.462180 0.000000 0.000000 0.000000 -15.043062 -40.304456 54.033502 13.213311 23.256024 -57.547196 -24.521000 -2.623080 -7.809690 -18.610701 -48.083801 -5.919800 0.000000 -86.114098 0.000000 54.477501 -2.335430 -8.939210 16.284800 -5.253560 -15.047900 15.416500 20.554899 -12.244500 180.000000 84.491302 180.000000 -42.689999 -6.359600 -23.703600 3.084927 1.031294 -1.349459 0.000000 0.000000 11.379300 14.095601 2.863002 22.449886 0.000000 0.000000 -27.664400 7.874808 0.628255 -21.446454 0.000000 0.000000 28.399500 8.659044 -20.995812 40.217130 0.000000 0.000000 -31.340700 
-15.728420 -0.420143 44.532402 167.897342 7.886650 87.777927 14.914724 30.166283 0.176360 -12.317938 -36.583782 21.309071 0.000000 0.000000 0.000000 -15.280533 -39.888508 54.324772 12.463851 23.369645 -58.127875 -24.688700 -3.487110 -8.111460 -19.677601 -46.736698 -1.614470 0.000000 -81.223396 0.000000 53.251400 -4.177200 -8.458710 16.505301 -5.340450 -15.338000 16.174500 20.954800 -7.932710 -180.000000 88.919502 -180.000000 -39.568199 -6.797300 -23.591600 3.066833 0.484924 -1.502254 0.000000 0.000000 11.714400 14.288929 2.785715 22.166402 0.000000 0.000000 -27.806400 7.894178 0.634700 -20.590520 0.000000 0.000000 27.365499 8.806260 -20.955205 40.260804 0.000000 0.000000 -30.962100 
-15.709731 -0.415235 44.525799 166.804903 7.740805 87.931936 15.142958 30.192862 0.191202 -14.160059 -36.367210 23.419963 0.000000 0.000000 0.000000 -15.339711 -39.733193 54.671960 11.757475 23.732769 -58.503078 -24.482599 -4.490000 -8.085860 -20.509199 -45.430302 2.320970 0.000000 -76.900200 0.000000 50.711399 -5.460100 -7.183650 17.036900 -5.922800 -15.419100 16.749201 21.854700 -3.743370 0.000000 86.360298 0.000000 -36.933899 -5.761070 -23.241600 2.862492 0.302359 -1.696924 0.000000 0.000000 12.026000 14.524624 2.857083 21.893318 0.000000 0.000000 -27.720500 7.765588 1.097881 -19.956519 0.000000 0.000000 26.431801 9.146443 -21.299739 40.298075 0.000000 0.000000 -30.801500 
